Patient4_TMGait_0pt8_01_left_20_GRF.mot
version=1
nRows=26
nColumns=19
inDegrees=no
endheader
time	F1x	F1y	F1z	M1x	M1y	M1z	F2x	F2y	F2z	M2x	M2y	M2z	EC1x	EC1y	EC1z	EC2x	EC2y	EC2z
21.66	2.2901	8.1946	-5.3603	-2.0071	2.7774	11.9707	-17.6447	707.4325	-61.2671	267.0387	79.4437	816.6232	-0.0592	0.0182	-0.0073	-0.0462	0.0165	0.9585
21.6715	1.3967	6.4471	-3.5491	-1.6868	1.7048	9.1863	-16.3304	704.0389	-61.7118	266.1987	78.357	807.6067	-0.0592	0.0182	-0.0073	-0.0462	0.0165	0.9585
21.683	0.6334	5.016	-2.0296	-1.4283	0.83071	6.8942	-14.4999	702.6528	-61.7585	266.062	76.7341	800.3731	-0.0592	0.0182	-0.0073	-0.0462	0.0165	0.9585
21.6945	0.052797	3.9848	-0.87424	-1.2478	0.18412	5.2258	-12.1595	703.9262	-61.4121	266.9043	74.6555	795.8159	-0.0592	0.0182	-0.0073	-0.0462	0.0165	0.9585
21.706	-0.35605	3.3555	-0.091056	-1.145	-0.24029	4.1829	-9.3666	708.0594	-60.7461	268.853	72.2427	794.2397	-0.0592	0.0182	-0.0073	-0.0462	0.0165	0.9585
21.7175	-0.60991	3.0538	0.38487	-1.1022	-0.48912	3.6446	-6.1361	714.7706	-59.8507	271.8585	69.592	795.3414	-0.0592	0.0182	-0.0073	-0.0462	0.0165	0.9585
21.729	-0.76038	2.9819	0.62817	-1.0993	-0.61455	3.4696	-2.5148	723.4277	-58.8008	275.7215	66.7737	798.4289	-0.0592	0.0182	-0.0073	-0.0462	0.0165	0.9585
21.7405	-0.83924	3.0153	0.72046	-1.1095	-0.67002	3.4743	1.4801	733.1851	-57.6858	280.1448	63.8533	802.5455	-0.0592	0.0182	-0.0073	-0.0462	0.0165	0.9585
21.752	-0.90005	3.0373	0.73135	-1.1076	-0.71033	3.4913	5.7654	743.2477	-56.5939	284.8216	60.9008	806.8338	-0.0592	0.0182	-0.0073	-0.0462	0.0165	0.9585
21.7635	-0.97438	2.9315	0.71692	-1.0627	-0.77825	3.3498	10.2369	752.9346	-55.6318	289.4614	58.0071	810.5886	-0.0592	0.0182	-0.0073	-0.0462	0.0165	0.9585
21.775	-1.088	2.6001	0.71147	-0.94193	-0.89587	2.921	14.734	761.6512	-54.9071	293.7771	55.2837	813.2548	-0.0592	0.0182	-0.0073	-0.0462	0.0165	0.9585
21.7865	-1.2274	1.9423	0.73159	-0.70848	-1.0585	2.0593	19.11	768.7538	-54.5627	297.4484	52.8866	814.2465	-0.0592	0.0182	-0.0073	-0.0462	0.0165	0.9585
21.798	-1.3816	0.88227	0.7836	-0.33043	-1.2496	0.67174	23.187	773.6493	-54.7119	300.1699	50.9703	813.0768	-0.0592	0.0182	-0.0073	-0.0462	0.0165	0.9585
21.8095	-1.4787	-0.61913	0.84613	0.20967	-1.4124	-1.2929	26.8042	775.9129	-55.4008	301.7121	49.6452	809.4526	-0.0592	0.0182	-0.0073	-0.0462	0.0165	0.9585
21.821	-1.45	-2.5051	0.89569	0.89347	-1.4833	-3.7644	29.7588	775.3528	-56.5819	301.9516	48.9575	803.3378	-0.0592	0.0182	-0.0073	-0.0462	0.0165	0.9585
21.8325	-1.1595	-4.5949	0.87799	1.6533	-1.3484	-6.5139	31.8677	771.9913	-58.1015	300.8717	48.8594	794.8843	-0.0592	0.0182	-0.0073	-0.0462	0.0165	0.9585
21.844	-0.4426	-6.51	0.72923	2.3474	-0.86634	-9.0439	32.9782	766.1433	-59.7631	298.5899	49.2532	784.5359	-0.0592	0.0182	-0.0073	-0.0462	0.0165	0.9585
21.8555	0.89783	-7.6054	0.36162	2.7321	0.14012	-10.5173	33.0824	758.432	-61.3569	295.3654	49.9779	772.9924	-0.0592	0.0182	-0.0073	-0.0462	0.0165	0.9585
21.867	3.0553	-6.8999	-0.31373	2.438	1.8514	-9.6545	32.3453	749.7029	-62.7534	291.5592	50.8762	761.1037	-0.0592	0.0182	-0.0073	-0.0462	0.0165	0.9585
21.8785	6.1729	-3.0353	-1.3822	0.95211	4.4205	-4.6878	31.1601	740.8477	-63.9022	287.5679	51.7745	749.6354	-0.0592	0.0182	-0.0073	-0.0462	0.0165	0.9585
21.89	10.2386	5.6954	-2.8847	-2.365	7.8913	6.5918	30.0258	732.6861	-64.8103	283.7668	52.5045	739.2326	-0.0592	0.0182	-0.0073	-0.0462	0.0165	0.9585
21.9015	14.9952	21.2059	-4.8014	-8.2228	12.1311	26.6497	29.452	725.7387	-65.4683	280.4239	52.8655	730.2175	-0.0592	0.0182	-0.0073	-0.0462	0.0165	0.9585
21.913	19.7731	45.251	-6.9712	-17.2658	16.6752	57.7567	29.8516	719.989	-65.835	277.5929	52.6513	722.3958	-0.0592	0.0182	-0.0073	-0.0462	0.0165	0.9585
21.9245	23.3344	78.8671	-9.0524	-29.8621	20.6007	101.2613	31.4728	714.6997	-65.811	275.0361	51.6568	714.8981	-0.0592	0.0182	-0.0073	-0.0462	0.0165	0.9585
21.936	23.7947	121.6245	-10.4283	-45.8249	22.4203	156.642	34.3326	708.4042	-65.2653	272.2156	49.7348	706.2072	-0.0592	0.0182	-0.0073	-0.0462	0.0165	0.9585
21.9475	19.5385	171.6598	-10.3965	-64.4241	20.6695	221.5742	38.2456	699.0742	-64.0457	268.3613	46.7979	694.3246	-0.0592	0.0182	-0.0073	-0.0462	0.0165	0.9585
